<?xml version="1.0" encoding="utf-8"?>
<!-- Generator: Adobe Illustrator 25.2.3, SVG Export Plug-In . SVG Version: 6.00 Build 0)  -->
<svg version="1.1" id="Layer_1" xmlns="http://www.w3.org/2000/svg" xmlns:xlink="http://www.w3.org/1999/xlink" x="0px" y="0px"
	 viewBox="0 0 283.5 283.5" style="enable-background:new 0 0 283.5 283.5;" xml:space="preserve">
<style type="text/css">
	.st0{fill:#231815;}
</style>
<path class="st0" d="M78.4,218.5h5.3V242h22.8v5.3H78.4V218.5z"/>
<path class="st0" d="M132.9,218.5c0.8,0,1.5,0.1,2.2,0.4c0.7,0.3,1.3,0.7,1.8,1.2c0.5,0.5,0.9,1.1,1.2,1.8c0.3,0.7,0.4,1.4,0.4,2.2
	v23.2h-5.3v-9.7H115v9.7h-5.3v-23.2c0-1.5,0.6-2.9,1.6-3.9c0.5-0.5,1.1-0.9,1.8-1.2c0.7-0.3,1.4-0.4,2.2-0.4L132.9,218.5z
	 M133.2,232.4v-8.3c0-0.1-0.1-0.3-0.2-0.3c0,0-0.1,0-0.1,0h-17.7c-0.1,0-0.3,0.1-0.3,0.2c0,0,0,0,0,0.1v8.3H133.2z"/>
<path class="st0" d="M166.2,218.5c0.7,0,1.5,0.1,2.1,0.4c0.7,0.3,1.3,0.7,1.8,1.2c0.5,0.5,0.9,1.1,1.2,1.8c0.3,0.7,0.4,1.4,0.4,2.2
	v17.7c0,0.7-0.1,1.5-0.4,2.2c-0.3,0.7-0.7,1.3-1.2,1.8c-0.5,0.5-1.1,0.9-1.8,1.2c-0.7,0.3-1.4,0.4-2.1,0.4h-17.7
	c-0.7,0-1.5-0.1-2.2-0.4c-0.7-0.3-1.3-0.7-1.8-1.2c-0.5-0.5-0.9-1.1-1.2-1.8c-0.3-0.7-0.4-1.4-0.4-2.2v-17.7c0-0.7,0.1-1.5,0.4-2.2
	c0.6-1.3,1.6-2.4,3-2.9c0.7-0.3,1.4-0.4,2.2-0.4L166.2,218.5z M166.2,242c0.2,0,0.2-0.1,0.2-0.3v-17.7c0-0.2-0.1-0.3-0.2-0.3h-17.7
	c-0.1,0-0.3,0.1-0.3,0.2c0,0,0,0.1,0,0.1v17.7c0,0.1,0.1,0.3,0.2,0.3c0,0,0.1,0,0.1,0H166.2z"/>
<path class="st0" d="M199.7,218.5h5.3v28.8h-5.8l-17.8-21.1v21.1h-5.3v-28.8h5.8l17.7,21.1L199.7,218.5z"/>
<path class="st0" d="M89.2,262.9h-1.4v-0.1c0-0.2-0.1-0.3-0.2-0.5c-0.1-0.1-0.3-0.2-0.4-0.2h-5.8c-0.2,0-0.3,0.1-0.4,0.2
	c-0.1,0.1-0.2,0.3-0.2,0.5v1.5c0,0.4,0.3,0.6,0.6,0.6h5.8c0.3,0,0.6,0,0.8,0.2c0.5,0.2,0.8,0.6,1,1.1c0.1,0.2,0.2,0.5,0.2,0.8v1.5
	c0,0.3-0.1,0.5-0.2,0.8c-0.1,0.2-0.2,0.5-0.4,0.6c-0.2,0.2-0.4,0.3-0.6,0.4c-0.2,0.1-0.5,0.2-0.8,0.2h-5.7c-0.3,0-0.5-0.1-0.8-0.2
	c-0.2-0.1-0.4-0.2-0.6-0.4c-0.2-0.2-0.3-0.4-0.4-0.6c-0.1-0.2-0.2-0.5-0.2-0.8v-0.1h1.3v0.1c0,0.2,0.1,0.3,0.2,0.5
	c0.1,0.1,0.3,0.2,0.4,0.2h5.8c0.4,0,0.6-0.3,0.6-0.7v-1.5c0-0.2-0.1-0.3-0.2-0.5c-0.1-0.1-0.3-0.2-0.4-0.2h-5.8
	c-0.3,0-0.5-0.1-0.8-0.2c-0.2-0.1-0.4-0.2-0.6-0.4c-0.2-0.2-0.3-0.4-0.4-0.6c-0.1-0.2-0.2-0.5-0.2-0.8v-1.5c0-0.3,0.1-0.5,0.2-0.8
	c0.1-0.2,0.2-0.5,0.4-0.6c0.2-0.2,0.4-0.3,0.6-0.4c0.2-0.1,0.5-0.2,0.8-0.2h5.8c0.3,0,0.5,0.1,0.8,0.2c0.2,0.1,0.5,0.2,0.6,0.4
	c0.2,0.2,0.3,0.4,0.4,0.7c0.1,0.2,0.2,0.5,0.2,0.8L89.2,262.9z"/>
<path class="st0" d="M111.3,262.1v6.2c0,0.2,0.1,0.3,0.2,0.5c0.1,0.1,0.3,0.2,0.4,0.2h3.5v1.4H112c-0.3,0-0.5,0-0.8-0.2
	c-0.2-0.1-0.4-0.2-0.6-0.4c-0.2-0.2-0.3-0.4-0.4-0.6c-0.1-0.2-0.2-0.5-0.2-0.8v-10.7h1.3v3.1h4.1v1.4L111.3,262.1z"/>
<path class="st0" d="M143.6,260.7c0.3,0,0.5,0.1,0.8,0.2c0.2,0.1,0.5,0.2,0.6,0.4c0.2,0.2,0.3,0.4,0.4,0.6c0.1,0.2,0.2,0.5,0.2,0.8
	v5.6c0,0.3-0.1,0.5-0.2,0.8c-0.1,0.2-0.2,0.5-0.4,0.6c-0.2,0.2-0.4,0.3-0.6,0.4c-0.2,0.1-0.5,0.2-0.8,0.2h-5.7
	c-0.3,0-0.5-0.1-0.8-0.2c-0.2-0.1-0.5-0.3-0.6-0.4c-0.2-0.2-0.3-0.4-0.4-0.6c-0.1-0.2-0.2-0.5-0.1-0.8v-5.6c0-0.3,0.1-0.5,0.2-0.7
	c0.1-0.2,0.2-0.5,0.4-0.6c0.2-0.2,0.4-0.3,0.6-0.4c0.2-0.1,0.5-0.2,0.8-0.2L143.6,260.7z M137.8,262.1c-0.4,0-0.6,0.3-0.6,0.6v5.6
	c0,0.2,0.1,0.3,0.2,0.5c0.1,0.1,0.3,0.2,0.5,0.2h5.7c0.2,0,0.3-0.1,0.5-0.2c0.1-0.1,0.2-0.3,0.2-0.5v-5.6c0-0.3-0.3-0.6-0.6-0.6
	c0,0,0,0,0,0H137.8z"/>
<path class="st0" d="M173.8,260.7v1.4h-5.4c-0.2,0-0.3,0.1-0.4,0.2c-0.1,0.1-0.2,0.3-0.2,0.5v7.6h-1.4v-7.6c0-0.8,0.5-1.5,1.2-1.8
	c0.2-0.1,0.5-0.2,0.8-0.2L173.8,260.7z"/>
<path class="st0" d="M203.6,272.1c0,0.3-0.1,0.5-0.2,0.8c-0.1,0.2-0.2,0.4-0.4,0.6c-0.2,0.2-0.4,0.3-0.6,0.4
	c-0.2,0.1-0.5,0.2-0.8,0.2h-6v-1.4h6c0.4,0,0.6-0.3,0.6-0.6v-1.8h-6.4c-0.3,0-0.5-0.1-0.8-0.2c-0.2-0.1-0.4-0.2-0.6-0.4
	c-0.2-0.2-0.3-0.4-0.4-0.6c-0.1-0.2-0.2-0.5-0.2-0.8v-7.5h1.4v7.5c0,0.2,0.1,0.3,0.2,0.5c0.1,0.1,0.3,0.2,0.5,0.2h5.7
	c0.2,0,0.3-0.1,0.4-0.2c0.1-0.1,0.2-0.3,0.2-0.5v-7.5h1.4V272.1z"/>
<path class="st0" d="M189.6,156c7.5,0,8.9,4.7,3.1,10.5l-22.4,22.7c-5.7,5.8-16.4,10.5-23.9,10.5H104c-7.5,0-8.9-4.7-3.1-10.5
	l22.4-22.7c5.7-5.8,16.5-10.5,23.9-10.5H189.6z"/>
<g>
	<defs>
		<path id="SVGID_1_" d="M189.6,156c7.5,0,8.9,4.7,3.1,10.5l-22.4,22.7c-5.7,5.8-16.4,10.5-23.9,10.5H104c-7.5,0-8.9-4.7-3.1-10.5
			l22.4-22.7c5.7-5.8,16.5-10.5,23.9-10.5H189.6z"/>
	</defs>
	<clipPath id="SVGID_2_">
		<use xlink:href="#SVGID_1_"  style="overflow:visible;"/>
	</clipPath>
</g>
<path class="st0" d="M87.2,101.6c0,7.5,4.7,8.9,10.5,3.1l22.7-22.4c5.8-5.7,10.6-16.4,10.6-23.9V16c0-7.5-4.7-8.9-10.5-3.1
	L97.8,35.3C92,41,87.2,51.7,87.2,59.2V101.6z"/>
<g>
	<defs>
		<path id="SVGID_3_" d="M87.2,101.6c0,7.5,4.7,8.9,10.5,3.1l22.7-22.4c5.8-5.7,10.6-16.4,10.6-23.9V16c0-7.5-4.7-8.9-10.5-3.1
			L97.8,35.3C92,41,87.2,51.7,87.2,59.2V101.6z"/>
	</defs>
	<clipPath id="SVGID_4_">
		<use xlink:href="#SVGID_3_"  style="overflow:visible;"/>
	</clipPath>
</g>
<path class="st0" d="M87.2,179.8c0,7.5,4.7,8.9,10.5,3.1l22.7-22.4c5.8-5.8,10.5-16.4,10.5-23.9V94.3c0-7.5-4.7-8.9-10.5-3.1
	l-22.7,22.4c-5.8,5.8-10.5,16.5-10.5,23.9V179.8z"/>
<g>
	<defs>
		<path id="SVGID_5_" d="M87.2,179.8c0,7.5,4.7,8.9,10.5,3.1l22.7-22.4c5.8-5.8,10.5-16.4,10.5-23.9V94.3c0-7.5-4.7-8.9-10.5-3.1
			l-22.7,22.4c-5.8,5.8-10.5,16.5-10.5,23.9V179.8z"/>
	</defs>
	<clipPath id="SVGID_6_">
		<use xlink:href="#SVGID_5_"  style="overflow:visible;"/>
	</clipPath>
</g>
</svg>
